<svg width="120" height="120" viewBox="0 0 120 120" fill="none" xmlns="http://www.w3.org/2000/svg">
<path d="M85.641 0H34.359C15.383 0 0 15.383 0 34.359V85.641C0 104.617 15.383 120 34.359 120H85.641C104.617 120 120 104.617 120 85.641V34.359C120 15.383 104.617 0 85.641 0Z" fill="#7C86FF"/>
<mask id="mask0_4_39" style="mask-type:luminance" maskUnits="userSpaceOnUse" x="20" y="20" width="80" height="80">
<path d="M100 20H20V100H100V20Z" fill="white"/>
</mask>
<g mask="url(#mask0_4_39)">
<path d="M20 60C20 37.9086 37.9086 20 60 20C82.0914 20 100 37.9086 100 60C100 82.0914 82.0914 100 60 100C37.9086 100 20 82.0914 20 60Z" fill="#18181B"/>
<path d="M30 60C30 43.4315 43.4315 30 60 30C76.5685 30 90 43.4315 90 60C90 76.5685 76.5685 90 60 90C43.4315 90 30 76.5685 30 60Z" fill="#7C86FF"/>
<path d="M56.6666 53.3333C56.6666 49.6514 53.6818 46.6667 49.9999 46.6667C46.318 46.6667 43.3333 49.6514 43.3333 53.3333V66.6667C43.3333 70.3486 46.318 73.3333 49.9999 73.3333C53.6818 73.3333 56.6666 70.3486 56.6666 66.6667V53.3333Z" fill="#18181B"/>
<path d="M76.6667 53.3333C76.6667 49.6514 73.6819 46.6667 70 46.6667C66.3181 46.6667 63.3334 49.6514 63.3334 53.3333V66.6667C63.3334 70.3486 66.3181 73.3333 70 73.3333C73.6819 73.3333 76.6667 70.3486 76.6667 66.6667V53.3333Z" fill="#18181B"/>
</g>
</svg>
